<svg width="51" height="51" viewBox="0 0 51 51" fill="none" xmlns="http://www.w3.org/2000/svg">
<path d="M25.2312 4.73432C31.9235 4.73432 32.6926 4.77285 35.3465 4.88814C37.7697 5.00373 39.1159 5.38814 40.0006 5.73432C41.1544 6.19579 42.0006 6.73432 42.885 7.61902C43.7697 8.50373 44.3082 9.31138 44.7697 10.5037C45.1159 11.3881 45.5388 12.6958 45.6159 15.1576C45.7312 17.8114 45.7697 18.5805 45.7697 25.2728C45.7697 31.9652 45.7312 32.7343 45.6159 35.3881C45.5006 37.8114 45.1159 39.1576 44.7697 40.042C44.3082 41.1958 43.7697 42.042 42.885 42.9267C42.0006 43.8114 41.1926 44.3499 40.0006 44.8114C39.1159 45.1576 37.8082 45.5805 35.3465 45.6576C32.6926 45.7728 31.9235 45.8114 25.2312 45.8114C18.5388 45.8114 17.7697 45.7728 15.1159 45.6576C12.6926 45.542 11.3465 45.1576 10.4621 44.8114C9.30823 44.3499 8.46205 43.8114 7.57735 42.9267C6.69264 42.042 6.15441 41.2343 5.69264 40.042C5.34646 39.1576 4.92352 37.8499 4.84647 35.3881C4.73117 32.7343 4.69264 31.9652 4.69264 25.2728C4.69264 18.5805 4.73117 17.8114 4.84647 15.1576C4.96205 12.7343 5.34646 11.3881 5.69264 10.5037C6.15441 9.3499 6.69264 8.50373 7.57735 7.61902C8.46205 6.73432 9.2697 6.19579 10.4621 5.73432C11.3465 5.38814 12.6544 4.9652 15.1159 4.88814C17.7697 4.77285 18.5388 4.73432 25.2312 4.73432ZM25.2312 0.234375C18.4235 0.234375 17.5773 0.272846 14.9235 0.388228C12.2697 0.50361 10.4235 0.92667 8.84646 1.54208C7.19264 2.1959 5.80823 3.04208 4.42352 4.4267C3.0389 5.81138 2.19276 7.19579 1.5389 8.84991C0.923522 10.4267 0.500436 12.2728 0.385054 14.9267C0.269672 17.5805 0.231201 18.4652 0.231201 25.2343C0.231201 32.042 0.269672 32.8881 0.385054 35.542C0.500436 38.1958 0.923522 40.042 1.5389 41.619C2.19276 43.2729 3.0389 44.6576 4.42352 46.042C5.80823 47.4267 7.19264 48.2728 8.84646 48.9267C10.4235 49.542 12.2697 49.9652 14.9235 50.0805C17.5773 50.1958 18.4621 50.2343 25.2312 50.2343C32.0006 50.2343 32.885 50.1958 35.5388 50.0805C38.1926 49.9652 40.0388 49.542 41.6159 48.9267C43.2697 48.2728 44.6544 47.4267 46.0388 46.042C47.4235 44.6576 48.2697 43.2729 48.9235 41.619C49.5388 40.042 49.962 38.1958 50.0773 35.542C50.1926 32.8881 50.2312 32.0037 50.2312 25.2343C50.2312 18.4652 50.1926 17.5805 50.0773 14.9267C49.962 12.2728 49.5388 10.4267 48.9235 8.84991C48.2697 7.19579 47.4235 5.81138 46.0388 4.4267C44.6544 3.04208 43.2697 2.1959 41.6159 1.54208C40.0388 0.92667 38.1926 0.50361 35.5388 0.388228C32.885 0.272846 32.0388 0.234375 25.2312 0.234375Z" fill="#025969"/>
<path d="M25.2312 12.4258C18.1159 12.4258 12.385 18.1952 12.385 25.272C12.385 32.349 18.1544 38.1181 25.2312 38.1181C32.3082 38.1181 38.0774 32.349 38.0774 25.272C38.0774 18.1952 32.3468 12.4258 25.2312 12.4258ZM25.2312 33.6181C20.6159 33.6181 16.885 29.8875 16.885 25.272C16.885 20.6567 20.6159 16.9258 25.2312 16.9258C29.8468 16.9258 33.5774 20.6567 33.5774 25.272C33.5774 29.8875 29.8468 33.6181 25.2312 33.6181Z" fill="#025969"/>
<path d="M38.5771 14.8887C40.2338 14.8887 41.577 13.5454 41.577 11.8887C41.577 10.2319 40.2338 8.88867 38.5771 8.88867C36.9203 8.88867 35.5771 10.2319 35.5771 11.8887C35.5771 13.5454 36.9203 14.8887 38.5771 14.8887Z" fill="#025969"/>
</svg>
