<svg width="100" height="101" viewBox="0 0 100 101" fill="none" xmlns="http://www.w3.org/2000/svg">
<path d="M63.9238 59.4258C63.0391 59.4258 62.5776 60.1181 62.5776 61.4643V62.8105H65.2315V61.4643C65.2315 60.0796 64.8082 59.4258 63.9238 59.4258Z" fill="#025969"/>
<path d="M70.4232 51.9659C69.8847 49.6197 67.9615 47.8891 65.6538 47.6583C60.1924 47.043 54.6538 47.043 49.1538 47.043C43.6538 47.043 38.1153 47.043 32.6538 47.6583C30.3462 47.9274 28.4231 49.6583 27.8847 51.9659C27.1154 55.3121 27.1154 58.9274 27.1154 62.3891C27.1154 65.8121 27.1154 69.4659 27.8847 72.8121C28.4616 75.1197 30.3847 76.8506 32.6924 77.0812C38.1538 77.6968 43.6924 77.6968 49.1924 77.6968C54.6924 77.6968 60.2309 77.6968 65.6924 77.0812C68 76.8121 69.9232 75.0812 70.4615 72.7736C71.2309 69.4274 71.2309 65.8121 71.2309 62.3506C71.1924 58.9274 71.1924 55.2736 70.4232 51.9659ZM39.7309 54.9659H36.5385V71.8891H33.5771V54.9659H30.4615V52.1968H39.7309V54.9659ZM47.7691 71.8891H45.1153V70.2736C44.0385 71.5044 43.0385 72.0812 42.0771 72.0812C41.2309 72.0812 40.6153 71.7353 40.3462 71.0044C40.1924 70.543 40.1153 69.8506 40.1153 68.8121V57.1968H42.7691V68.0044C42.7691 68.6197 42.7691 68.9659 42.8076 69.043C42.8847 69.4659 43.0771 69.6583 43.4232 69.6583C43.9615 69.6583 44.5 69.2353 45.1153 68.4274V57.1968H47.7691V71.8891ZM57.8847 67.4659C57.8847 68.8121 57.8076 69.8121 57.6153 70.4274C57.2691 71.5044 56.5385 72.0812 55.5 72.0812C54.5385 72.0812 53.6538 71.543 52.7691 70.4659V71.8891H50.1153V52.1968H52.7691V58.6197C53.6153 57.5812 54.5385 57.043 55.5 57.043C56.5771 57.043 57.2691 57.5812 57.6153 58.6968C57.8076 59.2736 57.8847 60.2736 57.8847 61.6583V67.4659ZM67.9232 65.043H62.6153V67.6583C62.6153 69.0044 63.0771 69.6968 63.9615 69.6968C64.6153 69.6968 65 69.3506 65.1538 68.6197C65.1924 68.4659 65.2309 67.8891 65.2309 66.8121H67.9615V67.1968C67.9615 68.043 67.9232 68.6583 67.9232 68.9274C67.8462 69.5044 67.6153 70.043 67.3076 70.5044C66.5771 71.5812 65.4615 72.0812 64.0771 72.0812C62.6924 72.0812 61.6153 71.5812 60.8462 70.5812C60.2691 69.8506 60 68.6968 60 67.1197V61.9659C60 60.3891 60.2691 59.2353 60.8077 58.5044C61.5771 57.5044 62.6538 57.0044 64 57.0044C65.3462 57.0044 66.3847 57.5044 67.1538 58.5044C67.6924 59.2353 67.9615 60.3891 67.9615 61.9659V65.043H67.9232Z" fill="#025969"/>
<path d="M54.0391 59.4258C53.6162 59.4258 53.1547 59.6181 52.7315 60.0796V69.0414C53.1929 69.5028 53.6162 69.6952 54.0391 69.6952C54.8085 69.6952 55.1929 69.0414 55.1929 67.6952V61.4258C55.1929 60.0796 54.8085 59.4258 54.0391 59.4258Z" fill="#025969"/>
<path fill-rule="evenodd" clip-rule="evenodd" d="M44.5776 24.4258H41.5391L39.5006 32.2334L37.3853 24.4258H34.2315C34.8468 26.2719 35.5006 28.1181 36.1544 29.9643C37.1159 32.7334 37.6929 34.849 37.9621 36.2719V44.349H40.9621V36.2719L44.5776 24.4258ZM52.5391 39.5413V34.349C52.5391 32.7719 52.2697 31.6181 51.6929 30.849C50.9621 29.849 49.8853 29.3104 48.5391 29.3104C47.1929 29.3104 46.1544 29.8104 45.4238 30.849C44.8468 31.6181 44.5776 32.7719 44.5776 34.349V39.5413C44.5776 41.1181 44.8468 42.2719 45.4238 43.0413C46.1544 44.0413 47.2315 44.5413 48.5391 44.5413C49.8853 44.5413 50.9238 44.0413 51.6929 43.0413C52.2697 42.3104 52.5391 41.1181 52.5391 39.5413ZM49.8468 40.0413C49.8468 41.4257 49.4238 42.1181 48.5776 42.1181C47.6929 42.1181 47.3082 41.4257 47.3082 40.0413V33.8104C47.3082 32.4257 47.7315 31.7719 48.5776 31.7719C49.4621 31.7719 49.8468 32.4643 49.8468 33.8104V40.0413ZM62.4621 44.349V29.5027H59.7697V40.849C59.1929 41.6951 58.6159 42.1181 58.0777 42.1181C57.7315 42.1181 57.5006 41.8872 57.4621 41.5028C57.4238 41.4257 57.4238 41.0795 57.4238 40.4643V29.5027H54.7315V41.2334C54.7315 42.2719 54.8082 43.0028 54.9621 43.4257C55.2315 44.1951 55.8082 44.5413 56.6929 44.5413C57.6544 44.5413 58.6929 43.9257 59.7697 42.7334V44.349H62.4621Z" fill="#025969"/>
</svg>
