<svg width="45" height="54" viewBox="0 0 45 54" fill="none" xmlns="http://www.w3.org/2000/svg">
<path d="M36.9238 35.4258C36.0391 35.4258 35.5776 36.1181 35.5776 37.4643V38.8105H38.2315V37.4643C38.2315 36.0796 37.8082 35.4258 36.9238 35.4258Z" fill="#025969"/>
<path d="M43.4232 27.9659C42.8847 25.6197 40.9615 23.8891 38.6538 23.6583C33.1924 23.043 27.6538 23.043 22.1538 23.043C16.6538 23.043 11.1153 23.043 5.65383 23.6583C3.34618 23.9274 1.42309 25.6583 0.884651 27.9659C0.115416 31.3121 0.115417 34.9274 0.115417 38.3891C0.115417 41.8121 0.115416 45.4659 0.884651 48.8121C1.46156 51.1197 3.38471 52.8506 5.69236 53.0812C11.1538 53.6968 16.6924 53.6968 22.1924 53.6968C27.6924 53.6968 33.2309 53.6968 38.6924 53.0812C41 52.8121 42.9232 51.0812 43.4615 48.7736C44.2309 45.4274 44.2309 41.8121 44.2309 38.3506C44.1924 34.9274 44.1924 31.2736 43.4232 27.9659ZM12.7309 30.9659H9.53854V47.8891H6.57706V30.9659H3.46148V28.1968H12.7309V30.9659ZM20.7691 47.8891H18.1153V46.2736C17.0385 47.5044 16.0385 48.0812 15.0771 48.0812C14.2309 48.0812 13.6153 47.7353 13.3462 47.0044C13.1924 46.543 13.1153 45.8506 13.1153 44.8121V33.1968H15.7691V44.0044C15.7691 44.6197 15.7691 44.9659 15.8076 45.043C15.8847 45.4659 16.0771 45.6583 16.4232 45.6583C16.9615 45.6583 17.5 45.2353 18.1153 44.4274V33.1968H20.7691V47.8891ZM30.8847 43.4659C30.8847 44.8121 30.8076 45.8121 30.6153 46.4274C30.2691 47.5044 29.5385 48.0812 28.5 48.0812C27.5385 48.0812 26.6538 47.543 25.7691 46.4659V47.8891H23.1153V28.1968H25.7691V34.6197C26.6153 33.5812 27.5385 33.043 28.5 33.043C29.5771 33.043 30.2691 33.5812 30.6153 34.6968C30.8076 35.2736 30.8847 36.2736 30.8847 37.6583V43.4659ZM40.9232 41.043H35.6153V43.6583C35.6153 45.0044 36.0771 45.6968 36.9615 45.6968C37.6153 45.6968 38 45.3506 38.1538 44.6197C38.1924 44.4659 38.2309 43.8891 38.2309 42.8121H40.9615V43.1968C40.9615 44.043 40.9232 44.6583 40.9232 44.9274C40.8462 45.5044 40.6153 46.043 40.3076 46.5044C39.5771 47.5812 38.4615 48.0812 37.0771 48.0812C35.6924 48.0812 34.6153 47.5812 33.8462 46.5812C33.2691 45.8506 33 44.6968 33 43.1197V37.9659C33 36.3891 33.2691 35.2353 33.8077 34.5044C34.5771 33.5044 35.6538 33.0044 37 33.0044C38.3462 33.0044 39.3847 33.5044 40.1538 34.5044C40.6924 35.2353 40.9615 36.3891 40.9615 37.9659V41.043H40.9232Z" fill="#025969"/>
<path d="M27.0391 35.4258C26.6162 35.4258 26.1547 35.6181 25.7315 36.0796V45.0414C26.1929 45.5028 26.6162 45.6952 27.0391 45.6952C27.8085 45.6952 28.1929 45.0414 28.1929 43.6952V37.4258C28.1929 36.0796 27.8085 35.4258 27.0391 35.4258Z" fill="#025969"/>
<path fill-rule="evenodd" clip-rule="evenodd" d="M17.5776 0.425781H14.5391L12.5006 8.23337L10.3853 0.425781H7.23147C7.84676 2.27193 8.50059 4.11808 9.15441 5.96425C10.1159 8.73337 10.6929 10.849 10.9621 12.2719V20.349H13.9621V12.2719L17.5776 0.425781ZM25.5391 15.5413V10.349C25.5391 8.7719 25.2697 7.61807 24.6929 6.84896C23.9621 5.84896 22.8853 5.3104 21.5391 5.3104C20.1929 5.3104 19.1544 5.81043 18.4238 6.84896C17.8468 7.61807 17.5776 8.7719 17.5776 10.349V15.5413C17.5776 17.1181 17.8468 18.2719 18.4238 19.0413C19.1544 20.0413 20.2315 20.5413 21.5391 20.5413C22.8853 20.5413 23.9238 20.0413 24.6929 19.0413C25.2697 18.3104 25.5391 17.1181 25.5391 15.5413ZM22.8468 16.0413C22.8468 17.4257 22.4238 18.1181 21.5776 18.1181C20.6929 18.1181 20.3082 17.4257 20.3082 16.0413V9.81043C20.3082 8.42572 20.7315 7.7719 21.5776 7.7719C22.4621 7.7719 22.8468 8.46425 22.8468 9.81043V16.0413ZM35.4621 20.349V5.50269H32.7697V16.849C32.1929 17.6951 31.6159 18.1181 31.0777 18.1181C30.7315 18.1181 30.5006 17.8872 30.4621 17.5028C30.4238 17.4257 30.4238 17.0795 30.4238 16.4643V5.50269H27.7315V17.2334C27.7315 18.2719 27.8082 19.0028 27.9621 19.4257C28.2315 20.1951 28.8082 20.5413 29.6929 20.5413C30.6544 20.5413 31.6929 19.9257 32.7697 18.7334V20.349H35.4621Z" fill="#025969"/>
</svg>
